<svg id="Page-1" xmlns="http://www.w3.org/2000/svg" width="22" height="24" viewBox="0 0 22 24">
  <g id="_006---AR-Phone-Projection" data-name="006---AR-Phone-Projection">
    <path id="Shape" d="M35.684,8.636a.9.9,0,0,1-1.242-.389.976.976,0,0,1,.373-1.294l2.166-1.212L27.217.26a.442.442,0,0,0-.434,0L17.018,5.741l2.166,1.213a.976.976,0,0,1,.373,1.294.9.9,0,0,1-1.242.389L16,7.339V18.256a.481.481,0,0,0,.241.42L26.083,24.2V21.026a.917.917,0,1,1,1.833,0V24.2l9.842-5.524A.481.481,0,0,0,38,18.256V7.339ZM31.1,11.216,27.917,13v2.293a.917.917,0,1,1-1.833,0V13L22.9,11.218a.976.976,0,0,1-.373-1.294.9.9,0,0,1,1.242-.389L27,11.344l3.232-1.815a.9.9,0,0,1,1.242.389.976.976,0,0,1-.373,1.294Z" transform="translate(-16 -0.203)" fill="#fff"/>
  </g>
</svg>
