<svg id="multimedia" xmlns="http://www.w3.org/2000/svg" width="24" height="24" viewBox="0 0 24 24">
  <path id="Path_180" data-name="Path 180" d="M214.793,205.725l5.465-2.6-5.465-2.6Zm0,0" transform="translate(-204.725 -191.124)" fill="#fff"/>
  <path id="Path_181" data-name="Path 181" d="M107.451,100.145a7.306,7.306,0,1,0,7.306,7.306A7.314,7.314,0,0,0,107.451,100.145Zm4.18,8.665c-5.684,2.651-5.518,2.748-6.113,2.748a1.507,1.507,0,0,1-1.5-1.507v-5.2a1.505,1.505,0,0,1,2.152-1.359l5.465,2.6a1.506,1.506,0,0,1,0,2.719Zm0,0" transform="translate(-95.451 -95.451)" fill="#fff"/>
  <path id="Path_182" data-name="Path 182" d="M12,0A12,12,0,1,0,24,12,11.994,11.994,0,0,0,12,0Zm0,20.811A8.811,8.811,0,1,1,20.811,12,8.821,8.821,0,0,1,12,20.811Zm0,0" fill="#fff"/>
</svg>
