<svg id="bookmark_3_" data-name="bookmark (3)" xmlns="http://www.w3.org/2000/svg" width="16" height="23.998" viewBox="0 0 16 23.998">
  <path id="Path_45" data-name="Path 45" d="M106.273,0H91.727A.716.716,0,0,0,91,.7V23.3a.7.7,0,0,0,.369.612A.749.749,0,0,0,92.1,23.9l6.9-4,6.9,4a.749.749,0,0,0,.732.009A.7.7,0,0,0,107,23.3V.7A.715.715,0,0,0,106.273,0Zm-.727,22.053-6.171-3.58a.749.749,0,0,0-.748,0l-6.171,3.58V1.406h13.091Z" transform="translate(-91)" fill="#707070"/>
  <path id="Path_46" data-name="Path 46" d="M157.468,126.819l-.434,2.4a.686.686,0,0,0,.3.688.778.778,0,0,0,.782.054l2.274-1.132,2.274,1.132a.778.778,0,0,0,.782-.054.686.686,0,0,0,.3-.688l-.434-2.4,1.84-1.7a.677.677,0,0,0,.188-.721.733.733,0,0,0-.6-.479l-2.542-.35-1.137-2.181a.762.762,0,0,0-1.332,0l-1.137,2.181-2.542.35a.733.733,0,0,0-.6.479.677.677,0,0,0,.188.721Zm1.714-1.908a.741.741,0,0,0,.559-.385l.644-1.235.644,1.235a.741.741,0,0,0,.559.385l1.439.2-1.041.961a.68.68,0,0,0-.214.622l.246,1.357-1.287-.641a.78.78,0,0,0-.691,0l-1.287.641.246-1.357a.68.68,0,0,0-.214-.622l-1.042-.961Z" transform="translate(-152.385 -115.329)" fill="#707070"/>
</svg>
