<svg xmlns="http://www.w3.org/2000/svg" width="10" height="8" viewBox="0 0 10 8">
  <g id="camera" transform="translate(0 -44.8)">
    <g id="Group_157" data-name="Group 157" transform="translate(0 44.8)">
      <g id="Group_156" data-name="Group 156" transform="translate(0 0)">
        <path id="Path_222" data-name="Path 222" d="M9.667,46.046a1.067,1.067,0,0,0-.789-.338H7.3v-.019a.875.875,0,0,0-.257-.628.863.863,0,0,0-.618-.261H3.574a.868.868,0,0,0-.627.261.891.891,0,0,0-.257.628v.019H1.122a1.067,1.067,0,0,0-.789.338,1.158,1.158,0,0,0-.333.8V51.66a1.1,1.1,0,0,0,.333.8,1.121,1.121,0,0,0,.789.338H8.878a1.067,1.067,0,0,0,.789-.338,1.158,1.158,0,0,0,.333-.8V46.848A1.1,1.1,0,0,0,9.667,46.046ZM9.506,51.66H9.5a.625.625,0,0,1-.181.444.605.605,0,0,1-.437.184H1.122A.605.605,0,0,1,.684,52.1.625.625,0,0,1,.5,51.66V46.848A.625.625,0,0,1,.684,46.4a.605.605,0,0,1,.437-.184H2.956a.258.258,0,0,0,.257-.261v-.28a.383.383,0,0,1,.1-.271.37.37,0,0,1,.266-.106H6.426a.37.37,0,0,1,.266.106.383.383,0,0,1,.1.271v.28a.258.258,0,0,0,.257.261H8.888a.605.605,0,0,1,.437.184.625.625,0,0,1,.181.444Z" transform="translate(0 -44.8)" fill="#006338"/>
        <path id="Path_223" data-name="Path 223" d="M114.413,130.8a2.412,2.412,0,1,0,1.707.706A2.417,2.417,0,0,0,114.413,130.8Zm1.334,3.757a1.895,1.895,0,0,1-2.668,0,1.875,1.875,0,0,1-.549-1.334,1.917,1.917,0,0,1,.549-1.334,1.875,1.875,0,0,1,1.334-.549,1.917,1.917,0,0,1,1.334.549,1.875,1.875,0,0,1,.549,1.334A1.836,1.836,0,0,1,115.747,134.557Z" transform="translate(-109.413 -128.814)" fill="#006338"/>
        <circle id="Ellipse_47" data-name="Ellipse 47" cx="0.481" cy="0.481" r="0.481" transform="translate(7.852 2.063)" fill="#006338"/>
      </g>
    </g>
  </g>
</svg>
