<svg xmlns="http://www.w3.org/2000/svg" width="18.001" height="18" viewBox="0 0 18.001 18">
  <g id="downloading-file" transform="translate(-29.996 -7.961)">
    <path id="Path_40079" data-name="Path 40079" d="M46.667,351.791A1.275,1.275,0,0,0,45.337,353v1.889H32.656V353A1.336,1.336,0,0,0,30,353v3.1a1.275,1.275,0,0,0,1.33,1.212H46.667A1.275,1.275,0,0,0,48,356.1V353A1.275,1.275,0,0,0,46.667,351.791Z" transform="translate(0 -331.354)" fill="#707070"/>
    <path id="Path_40080" data-name="Path 40080" d="M130.507,21.726a.68.68,0,0,0,.855,0l4.964-4.247a.388.388,0,0,0,.109-.472.512.512,0,0,0-.467-.267h-2.331V8.907a1.034,1.034,0,0,0-1.105-.946h-3.195a1.034,1.034,0,0,0-1.105.946v7.834H125.9a.512.512,0,0,0-.467.267.389.389,0,0,0,.109.472Z" transform="translate(-91.938 0)" fill="#707070"/>
  </g>
</svg>
