<svg xmlns="http://www.w3.org/2000/svg" width="24" height="24" viewBox="0 0 24 24">
  <g id="global" transform="translate(0 -0.072)">
    <g id="Group_88" data-name="Group 88" transform="translate(7.095 12.775)">
      <g id="Group_87" data-name="Group 87">
        <path id="Path_195" data-name="Path 195" d="M151.368,271a19.61,19.61,0,0,0,.684,4.616,21.969,21.969,0,0,1,3.518-.379V271Z" transform="translate(-151.368 -271)" fill="#869a95"/>
      </g>
    </g>
    <g id="Group_90" data-name="Group 90" transform="translate(8.221 18.419)">
      <g id="Group_89" data-name="Group 89">
        <path id="Path_196" data-name="Path 196" d="M175.379,391.678c.766,1.977,1.858,3.438,3.077,3.831v-4.156A20.655,20.655,0,0,0,175.379,391.678Z" transform="translate(-175.379 -391.353)" fill="#869a95"/>
      </g>
    </g>
    <g id="Group_92" data-name="Group 92" transform="translate(0 4.746)">
      <g id="Group_91" data-name="Group 91">
        <path id="Path_197" data-name="Path 197" d="M2.574,99.764A11.963,11.963,0,0,0,0,106.386H5.691a20.889,20.889,0,0,1,.712-4.949A13.21,13.21,0,0,1,2.574,99.764Z" transform="translate(0 -99.764)" fill="#869a95"/>
      </g>
    </g>
    <g id="Group_94" data-name="Group 94" transform="translate(7.095 6.738)">
      <g id="Group_93" data-name="Group 93">
        <path id="Path_198" data-name="Path 198" d="M152.056,142.246a19.6,19.6,0,0,0-.688,4.63h4.2v-4.247A21.84,21.84,0,0,1,152.056,142.246Z" transform="translate(-151.368 -142.246)" fill="#869a95"/>
      </g>
    </g>
    <g id="Group_96" data-name="Group 96" transform="translate(8.224 1.569)">
      <g id="Group_95" data-name="Group 95">
        <path id="Path_199" data-name="Path 199" d="M175.461,35.822a20.624,20.624,0,0,0,3.073.324V32C177.317,32.393,176.227,33.85,175.461,35.822Z" transform="translate(-175.461 -32)" fill="#869a95"/>
      </g>
    </g>
    <g id="Group_98" data-name="Group 98" transform="translate(17.602 12.776)">
      <g id="Group_97" data-name="Group 97">
        <path id="Path_200" data-name="Path 200" d="M376.256,271a20.9,20.9,0,0,1-.706,4.926,12.851,12.851,0,0,1,3.827,1.691A11.963,11.963,0,0,0,381.948,271Z" transform="translate(-375.55 -271)" fill="#869a95"/>
      </g>
    </g>
    <g id="Group_100" data-name="Group 100" transform="translate(17.598 4.747)">
      <g id="Group_99" data-name="Group 99">
        <path id="Path_201" data-name="Path 201" d="M379.292,99.776a13.061,13.061,0,0,1-3.828,1.679,20.893,20.893,0,0,1,.71,4.942h5.691A11.964,11.964,0,0,0,379.292,99.776Z" transform="translate(-375.464 -99.776)" fill="#869a95"/>
      </g>
    </g>
    <g id="Group_102" data-name="Group 102" transform="translate(12.701 0.072)">
      <g id="Group_101" data-name="Group 101" transform="translate(0 0)">
        <path id="Path_202" data-name="Path 202" d="M271,.072V.11c1.854.371,3.44,2.278,4.453,4.96a12.32,12.32,0,0,0,3.338-1.4A12,12,0,0,0,271,.072Z" transform="translate(-271 -0.072)" fill="#869a95"/>
      </g>
    </g>
    <g id="Group_104" data-name="Group 104" transform="translate(12.701 19.053)">
      <g id="Group_103" data-name="Group 103">
        <path id="Path_203" data-name="Path 203" d="M275.46,404.89c-1.012,2.693-2.6,4.608-4.46,4.98v.038a12,12,0,0,0,7.8-3.61A12.021,12.021,0,0,0,275.46,404.89Z" transform="translate(-271 -404.89)" fill="#869a95"/>
      </g>
    </g>
    <g id="Group_106" data-name="Group 106" transform="translate(12.702 6.742)">
      <g id="Group_105" data-name="Group 105">
        <path id="Path_204" data-name="Path 204" d="M274.515,142.321A21.948,21.948,0,0,1,271,142.7v4.247h4.2A19.6,19.6,0,0,0,274.515,142.321Z" transform="translate(-271 -142.321)" fill="#869a95"/>
      </g>
    </g>
    <g id="Group_108" data-name="Group 108" transform="translate(3.502 0.072)">
      <g id="Group_107" data-name="Group 107" transform="translate(0 0)">
        <path id="Path_205" data-name="Path 205" d="M74.7,3.677a12.119,12.119,0,0,0,3.341,1.4C79.051,2.393,80.639.482,82.5.11V.072A12,12,0,0,0,74.7,3.677Z" transform="translate(-74.698 -0.072)" fill="#869a95"/>
      </g>
    </g>
    <g id="Group_110" data-name="Group 110" transform="translate(12.702 12.776)">
      <g id="Group_109" data-name="Group 109">
        <path id="Path_206" data-name="Path 206" d="M271,271v4.237a22.068,22.068,0,0,1,3.519.376A19.615,19.615,0,0,0,275.2,271Z" transform="translate(-271 -271.001)" fill="#869a95"/>
      </g>
    </g>
    <g id="Group_112" data-name="Group 112" transform="translate(12.703 18.419)">
      <g id="Group_111" data-name="Group 111">
        <path id="Path_207" data-name="Path 207" d="M271,391.353v4.156c1.219-.394,2.311-1.855,3.078-3.833A20.771,20.771,0,0,0,271,391.353Z" transform="translate(-271 -391.353)" fill="#869a95"/>
      </g>
    </g>
    <g id="Group_114" data-name="Group 114" transform="translate(0 12.776)">
      <g id="Group_113" data-name="Group 113">
        <path id="Path_208" data-name="Path 208" d="M5.691,271H0a11.965,11.965,0,0,0,2.576,6.624A12.9,12.9,0,0,1,6.4,275.932,20.9,20.9,0,0,1,5.691,271Z" transform="translate(0 -271)" fill="#869a95"/>
      </g>
    </g>
    <g id="Group_116" data-name="Group 116" transform="translate(3.502 19.058)">
      <g id="Group_115" data-name="Group 115">
        <path id="Path_209" data-name="Path 209" d="M78.032,404.98a12.073,12.073,0,0,0-3.339,1.41,12,12,0,0,0,7.8,3.6v-.038C80.633,409.584,79.043,407.671,78.032,404.98Z" transform="translate(-74.693 -404.98)" fill="#869a95"/>
      </g>
    </g>
    <g id="Group_118" data-name="Group 118" transform="translate(12.703 1.569)">
      <g id="Group_117" data-name="Group 117">
        <path id="Path_210" data-name="Path 210" d="M271,32v4.145a20.4,20.4,0,0,0,3.07-.33C273.3,33.847,272.216,32.393,271,32Z" transform="translate(-271 -32)" fill="#869a95"/>
      </g>
    </g>
  </g>
</svg>
