<svg width="21" height="20" viewBox="0 0 21 20" fill="none" xmlns="http://www.w3.org/2000/svg">
<path d="M6.41617 8.13914L17.5351 0.491119C17.992 0.176171 18.4671 0.00994873 18.8739 0.00994873C19.7671 0.00994873 20.3593 0.759084 20.3593 1.9646V18.0456C20.3593 18.6345 20.188 19.1265 19.9341 19.469C19.6764 19.8162 19.2731 19.9999 18.8375 19.9999C18.4308 19.9999 17.9745 19.8334 17.5178 19.5189L6.40888 11.8709C5.69474 11.3787 5.30316 10.7162 5.30332 10.0047C5.30332 9.29346 5.70105 8.631 6.41617 8.13914Z" fill="white"/>
<path d="M2.34532 19.9949L2.35718 19.9948C2.35913 19.9948 2.36103 19.9949 2.36298 19.9949H2.34532Z" fill="white"/>
<path d="M2.37806 -6.10352e-05L2.83768 0.00123505C3.43955 0.00123505 3.96057 0.491802 3.96057 1.09448V18.89C3.96057 19.4933 3.44813 19.9886 2.84546 19.9886L2.3572 19.9948C1.75756 19.9916 1.30587 19.492 1.30587 18.891V1.09335C1.30587 0.490668 1.7757 -6.10352e-05 2.37806 -6.10352e-05Z" fill="white"/>
</svg>
