<svg width="21" height="20" viewBox="0 0 21 20" fill="none" xmlns="http://www.w3.org/2000/svg">
<path d="M15.2489 8.13914L4.12995 0.491119C3.67308 0.176171 3.1979 0.00994873 2.7911 0.00994873C1.89793 0.00994873 1.30579 0.759084 1.30579 1.9646V18.0456C1.30579 18.6345 1.47703 19.1265 1.7309 19.469C1.98866 19.8162 2.3919 19.9999 2.82755 19.9999C3.23419 19.9999 3.69058 19.8334 4.14728 19.5189L15.2562 11.8709C15.9703 11.3787 16.3619 10.7162 16.3617 10.0047C16.3617 9.29346 15.964 8.631 15.2489 8.13914Z" fill="white"/>
<path d="M19.3197 19.9949L19.3079 19.9948C19.3059 19.9948 19.304 19.9949 19.3021 19.9949H19.3197Z" fill="white"/>
<path d="M19.287 -6.10352e-05L18.8274 0.00123505C18.2255 0.00123505 17.7045 0.491802 17.7045 1.09448V18.89C17.7045 19.4933 18.2169 19.9886 18.8196 19.9886L19.3078 19.9948C19.9075 19.9916 20.3592 19.492 20.3592 18.891V1.09335C20.3592 0.490668 19.8893 -6.10352e-05 19.287 -6.10352e-05Z" fill="white"/>
</svg>
