<svg width="22" height="22" viewBox="0 0 22 22" fill="none" xmlns="http://www.w3.org/2000/svg">
<g clip-path="url(#clip0_92_3187)">
<path d="M21.0833 11.8976H0.916667C0.410665 11.8976 0 11.487 0 10.981C0 10.475 0.410665 10.0643 0.916667 10.0643H21.0833C21.5893 10.0643 22 10.475 22 10.981C22 11.487 21.5893 11.8976 21.0833 11.8976Z" fill="white"/>
<path d="M21.0833 4.8698H0.916667C0.410665 4.8698 0 4.45914 0 3.95314C0 3.44713 0.410665 3.03647 0.916667 3.03647H21.0833C21.5893 3.03647 22 3.44713 22 3.95314C22 4.45914 21.5893 4.8698 21.0833 4.8698Z" fill="white"/>
<path d="M21.0833 18.9253H0.916667C0.410665 18.9253 0 18.5146 0 18.0086C0 17.5026 0.410665 17.0919 0.916667 17.0919H21.0833C21.5893 17.0919 22 17.5026 22 18.0086C22 18.5146 21.5893 18.9253 21.0833 18.9253Z" fill="white"/>
</g>
<defs>
<clipPath id="clip0_92_3187">
<rect width="22" height="22" fill="white"/>
</clipPath>
</defs>
</svg>
