<svg xmlns="http://www.w3.org/2000/svg" width="18" height="18" viewBox="0 0 18 18">
  <g id="global" transform="translate(0 -0.072)">
    <g id="Group_88" data-name="Group 88" transform="translate(5.321 9.6)">
      <g id="Group_87" data-name="Group 87">
        <path id="Path_195" data-name="Path 195" d="M151.368,271a14.707,14.707,0,0,0,.513,3.462,16.479,16.479,0,0,1,2.639-.284V271Z" transform="translate(-151.368 -271)" fill="#707070"/>
      </g>
    </g>
    <g id="Group_90" data-name="Group 90" transform="translate(6.165 13.832)">
      <g id="Group_89" data-name="Group 89">
        <path id="Path_196" data-name="Path 196" d="M175.379,391.6a4.591,4.591,0,0,0,2.307,2.873v-3.117A15.5,15.5,0,0,0,175.379,391.6Z" transform="translate(-175.379 -391.353)" fill="#707070"/>
      </g>
    </g>
    <g id="Group_92" data-name="Group 92" transform="translate(0 3.578)">
      <g id="Group_91" data-name="Group 91">
        <path id="Path_197" data-name="Path 197" d="M1.931,99.764A8.973,8.973,0,0,0,0,104.73H4.268a15.667,15.667,0,0,1,.534-3.712A9.907,9.907,0,0,1,1.931,99.764Z" transform="translate(0 -99.764)" fill="#707070"/>
      </g>
    </g>
    <g id="Group_94" data-name="Group 94" transform="translate(5.321 5.072)">
      <g id="Group_93" data-name="Group 93">
        <path id="Path_198" data-name="Path 198" d="M151.884,142.246a14.7,14.7,0,0,0-.516,3.473h3.152v-3.185A16.378,16.378,0,0,1,151.884,142.246Z" transform="translate(-151.368 -142.246)" fill="#707070"/>
      </g>
    </g>
    <g id="Group_96" data-name="Group 96" transform="translate(6.168 1.195)">
      <g id="Group_95" data-name="Group 95">
        <path id="Path_199" data-name="Path 199" d="M175.461,34.866a15.467,15.467,0,0,0,2.3.243V32A4.585,4.585,0,0,0,175.461,34.866Z" transform="translate(-175.461 -32)" fill="#707070"/>
      </g>
    </g>
    <g id="Group_98" data-name="Group 98" transform="translate(13.202 9.6)">
      <g id="Group_97" data-name="Group 97">
        <path id="Path_200" data-name="Path 200" d="M376.08,271a15.677,15.677,0,0,1-.53,3.695,9.638,9.638,0,0,1,2.87,1.268A8.973,8.973,0,0,0,380.348,271Z" transform="translate(-375.55 -271)" fill="#707070"/>
      </g>
    </g>
    <g id="Group_100" data-name="Group 100" transform="translate(13.199 3.578)">
      <g id="Group_99" data-name="Group 99">
        <path id="Path_201" data-name="Path 201" d="M378.335,99.776a9.8,9.8,0,0,1-2.871,1.259,15.668,15.668,0,0,1,.533,3.707h4.269A8.973,8.973,0,0,0,378.335,99.776Z" transform="translate(-375.464 -99.776)" fill="#707070"/>
      </g>
    </g>
    <g id="Group_102" data-name="Group 102" transform="translate(9.525 0.072)">
      <g id="Group_101" data-name="Group 101" transform="translate(0 0)">
        <path id="Path_202" data-name="Path 202" d="M271,.072V.1c1.39.278,2.58,1.709,3.34,3.72a9.24,9.24,0,0,0,2.5-1.051A9,9,0,0,0,271,.072Z" transform="translate(-271 -0.072)" fill="#707070"/>
      </g>
    </g>
    <g id="Group_104" data-name="Group 104" transform="translate(9.525 14.308)">
      <g id="Group_103" data-name="Group 103">
        <path id="Path_203" data-name="Path 203" d="M274.345,404.89c-.759,2.02-1.952,3.456-3.345,3.735v.029a9,9,0,0,0,5.851-2.707A9.017,9.017,0,0,0,274.345,404.89Z" transform="translate(-271 -404.89)" fill="#707070"/>
      </g>
    </g>
    <g id="Group_106" data-name="Group 106" transform="translate(9.527 5.074)">
      <g id="Group_105" data-name="Group 105">
        <path id="Path_204" data-name="Path 204" d="M273.636,142.321a16.459,16.459,0,0,1-2.636.284v3.185h3.152A14.7,14.7,0,0,0,273.636,142.321Z" transform="translate(-271 -142.321)" fill="#707070"/>
      </g>
    </g>
    <g id="Group_108" data-name="Group 108" transform="translate(2.627 0.072)">
      <g id="Group_107" data-name="Group 107" transform="translate(0 0)">
        <path id="Path_205" data-name="Path 205" d="M74.7,2.775A9.09,9.09,0,0,0,77.2,3.828C77.963,1.812,79.154.379,80.546.1V.072A9,9,0,0,0,74.7,2.775Z" transform="translate(-74.698 -0.072)" fill="#707070"/>
      </g>
    </g>
    <g id="Group_110" data-name="Group 110" transform="translate(9.527 9.6)">
      <g id="Group_109" data-name="Group 109">
        <path id="Path_206" data-name="Path 206" d="M271,271v3.178a16.551,16.551,0,0,1,2.639.282,14.711,14.711,0,0,0,.513-3.46Z" transform="translate(-271 -271.001)" fill="#707070"/>
      </g>
    </g>
    <g id="Group_112" data-name="Group 112" transform="translate(9.527 13.832)">
      <g id="Group_111" data-name="Group 111">
        <path id="Path_207" data-name="Path 207" d="M271,391.353v3.117a4.592,4.592,0,0,0,2.308-2.875A15.57,15.57,0,0,0,271,391.353Z" transform="translate(-271 -391.353)" fill="#707070"/>
      </g>
    </g>
    <g id="Group_114" data-name="Group 114" transform="translate(0 9.6)">
      <g id="Group_113" data-name="Group 113">
        <path id="Path_208" data-name="Path 208" d="M4.268,271H0a8.973,8.973,0,0,0,1.932,4.968A9.675,9.675,0,0,1,4.8,274.7,15.676,15.676,0,0,1,4.268,271Z" transform="translate(0 -271)" fill="#707070"/>
      </g>
    </g>
    <g id="Group_116" data-name="Group 116" transform="translate(2.627 14.311)">
      <g id="Group_115" data-name="Group 115">
        <path id="Path_209" data-name="Path 209" d="M77.2,404.98a9.054,9.054,0,0,0-2.5,1.057,9,9,0,0,0,5.848,2.7v-.029C79.148,408.433,77.956,407,77.2,404.98Z" transform="translate(-74.693 -404.98)" fill="#707070"/>
      </g>
    </g>
    <g id="Group_118" data-name="Group 118" transform="translate(9.527 1.195)">
      <g id="Group_117" data-name="Group 117">
        <path id="Path_210" data-name="Path 210" d="M271,32v3.109a15.3,15.3,0,0,0,2.3-.248A4.582,4.582,0,0,0,271,32Z" transform="translate(-271 -32)" fill="#707070"/>
      </g>
    </g>
  </g>
</svg>
