<svg xmlns="http://www.w3.org/2000/svg" width="18" height="18" viewBox="0 0 18 18">
  <path id="heart_1_" data-name="heart (1)" d="M16.573,1.762A4.611,4.611,0,0,0,12.972,0a4.221,4.221,0,0,0-2.828,1.1A6.241,6.241,0,0,0,9,2.439,6.238,6.238,0,0,0,7.857,1.1,4.221,4.221,0,0,0,5.029,0a4.612,4.612,0,0,0-3.6,1.762A6.8,6.8,0,0,0,0,6.08,8.061,8.061,0,0,0,1.786,11.01a40.356,40.356,0,0,0,4.469,4.715c.619.593,1.321,1.266,2.05,1.982a.971.971,0,0,0,1.391,0c.729-.716,1.431-1.389,2.051-1.983a40.334,40.334,0,0,0,4.469-4.714A8.06,8.06,0,0,0,18,6.08a6.8,6.8,0,0,0-1.428-4.319Zm0,0" transform="translate(0)" fill="#707070"/>
</svg>
