<svg xmlns="http://www.w3.org/2000/svg" width="24" height="24" viewBox="0 0 24 24">
  <g id="logout" transform="translate(0 -0.004)">
    <path id="Path_639" data-name="Path 639" d="M15,13a1,1,0,0,0-1,1v4a1,1,0,0,1-1,1H10V4A2.015,2.015,0,0,0,8.638,2.1l-.3-.1H13a1,1,0,0,1,1,1V6a1,1,0,1,0,2,0V3a3,3,0,0,0-3-3H2.25a.785.785,0,0,0-.107.022C2.095.022,2.049,0,2,0A2,2,0,0,0,0,2V20a2.015,2.015,0,0,0,1.362,1.9L7.38,23.911A2.07,2.07,0,0,0,8,24a2,2,0,0,0,2-2V21h3a3,3,0,0,0,3-3V14a1,1,0,0,0-1-1Zm0,0" fill="#869a95"/>
    <path id="Path_640" data-name="Path 640" d="M288.039,110.959l-4-4a1,1,0,0,0-1.707.707v3h-4a1,1,0,1,0,0,2h4v3a1,1,0,0,0,1.707.707l4-4a1,1,0,0,0,0-1.414Zm0,0" transform="translate(-264.332 -101.662)" fill="#869a95"/>
  </g>
</svg>
