<svg xmlns="http://www.w3.org/2000/svg" width="20" height="18" viewBox="0 0 20 18">
  <g id="Group_131" data-name="Group 131" transform="translate(-273 -665)">
    <path id="Path_187" data-name="Path 187" d="M11.683,16.054a.691.691,0,0,0-.709.077l-6.519,5H1.34A1.316,1.316,0,0,0,0,22.419v5.143a1.315,1.315,0,0,0,1.34,1.286H4.455l6.518,5a.695.695,0,0,0,.71.076.64.64,0,0,0,.379-.579V16.634A.643.643,0,0,0,11.683,16.054Z" transform="translate(273 649.01)" fill="#869a95"/>
    <path id="Path_193" data-name="Path 193" d="M339.657,170.639l1.41-1.41a.72.72,0,0,0-1.018-1.018l-1.41,1.41-1.41-1.41a.72.72,0,0,0-1.018,1.018l1.41,1.41-1.41,1.41a.72.72,0,0,0,1.018,1.018l1.41-1.41,1.41,1.41a.72.72,0,1,0,1.018-1.018Z" transform="translate(-48.278 503.735)" fill="#869a95"/>
  </g>
</svg>
