<svg xmlns="http://www.w3.org/2000/svg" width="24" height="23.998" viewBox="0 0 24 23.998">
  <path id="book" d="M23.3,1.2H18.431a.7.7,0,0,0-.7.7V3.112h-3.46V.722a.7.7,0,0,0-.7-.7H6.53a.7.7,0,0,0-.7.7V4H.7a.7.7,0,0,0-.7.7V23.315a.7.7,0,0,0,.7.7H23.3a.7.7,0,0,0,.7-.7V1.906a.7.7,0,0,0-.7-.7ZM19.134,5.6h3.46v14.05h-3.46Zm0-2.992h3.46V4.2h-3.46ZM17.729,4.518v2.44h-3.46V4.518Zm-10.5,1.7h5.63V17.836H7.233Zm0-4.793h5.63V4.812H7.233ZM5.827,5.4V7.346H1.405V5.4ZM1.405,8.751H5.827V22.612H1.405Zm5.828,10.49h5.63v3.37H7.233ZM14.268,8.363h3.46V22.612h-3.46Zm4.866,14.249V21.056h3.46v1.556Z" transform="translate(0 -0.019)" fill="#869a95"/>
</svg>
