<svg xmlns="http://www.w3.org/2000/svg" width="24" height="24" viewBox="0 0 24 24">
  <g id="Page-1" transform="translate(0.25 0.249)">
    <g id="_026---Open-Book" data-name="026---Open-Book" transform="translate(-0.25 -0.249)">
      <path id="Shape" d="M22.335,7.446V3.167a.783.783,0,0,0-1.136-.7l-.431.214V.784A.784.784,0,0,0,19.68.063c-5.295,2.22-7.226,3.824-7.925,4.75-.7-.926-2.629-2.531-7.923-4.75a.784.784,0,0,0-1.09.721v1.9l-.434-.217a.784.784,0,0,0-1.134.7V7.446A1.176,1.176,0,0,0,0,8.621v.392A1.168,1.168,0,0,0,.306,9.8,1.168,1.168,0,0,0,0,10.581v.392a1.168,1.168,0,0,0,.306.784A1.168,1.168,0,0,0,0,12.54v.392a1.168,1.168,0,0,0,.306.784A1.168,1.168,0,0,0,0,14.5v.392a1.176,1.176,0,0,0,1.176,1.176V18.75a.775.775,0,0,0,.431.7l7.835,3.918a.784.784,0,0,0,.355.086.771.771,0,0,0,.334-.084.78.78,0,0,0,.449.141h2.351a.78.78,0,0,0,.448-.142.745.745,0,0,0,.687,0L21.9,19.455a.778.778,0,0,0,.44-.7V16.066a1.176,1.176,0,0,0,1.176-1.176V14.5a1.168,1.168,0,0,0-.306-.784,1.168,1.168,0,0,0,.306-.784V12.54a1.168,1.168,0,0,0-.306-.784,1.168,1.168,0,0,0,.306-.784v-.392a1.168,1.168,0,0,0-.306-.784,1.168,1.168,0,0,0,.306-.784V8.621a1.176,1.176,0,0,0-1.176-1.176Zm.392,1.176v.392a.392.392,0,0,1-.392.392H20.572a.588.588,0,1,1,0-1.176h1.763A.392.392,0,0,1,22.727,8.621Zm0,1.959v.392a.392.392,0,0,1-.392.392H19.788a.588.588,0,0,1,0-1.176h2.547A.392.392,0,0,1,22.727,10.581Zm0,1.959v.392a.392.392,0,0,1-.392.392H20.572a.588.588,0,1,1,0-1.176h1.763A.392.392,0,0,1,22.727,12.54ZM19.984.784V3.076L13.362,6.388l-.013.009a.777.777,0,0,0-.418-.126h-.784V5.707c.031-.123.6-1.889,7.837-4.923ZM3.527.784c7.441,3.119,7.833,4.9,7.837,4.9V6.27H10.58a.777.777,0,0,0-.42.124l-.013-.009L3.527,3.076ZM.784,8.621a.392.392,0,0,1,.392-.392H2.939a.588.588,0,1,1,0,1.176H1.176a.392.392,0,0,1-.392-.392Zm2.743,4.114a.588.588,0,0,1-.588.588H1.176a.392.392,0,0,1-.392-.392V12.54a.392.392,0,0,1,.392-.392H2.939A.588.588,0,0,1,3.527,12.736Zm.2-1.371H1.176a.392.392,0,0,1-.392-.392v-.392a.392.392,0,0,1,.392-.392H3.723a.588.588,0,1,1,0,1.176ZM.784,14.891V14.5a.392.392,0,0,1,.392-.392H2.547a.588.588,0,0,1,0,1.176H1.176A.392.392,0,0,1,.784,14.891Zm1.176,3.86V16.066h.588A1.367,1.367,0,0,0,3.659,13.9a1.349,1.349,0,0,0,.476-1.82,1.362,1.362,0,0,0,0-2.6,1.357,1.357,0,0,0,.176-.658A1.371,1.371,0,0,0,2.939,7.446h-.98V3.168l1.014.507.013.007L9.8,7.085V22.667Zm8.621,3.977V7.054h2.351V22.728Zm10.972-3.979-7.837,3.918V7.086l6.806-3.4.021-.011,1.01-.507V7.446h-.98A1.371,1.371,0,0,0,19.2,8.817a1.357,1.357,0,0,0,.176.658,1.362,1.362,0,0,0,0,2.6,1.349,1.349,0,0,0,.476,1.82,1.367,1.367,0,0,0,1.112,2.168h.588Zm1.176-3.858a.392.392,0,0,1-.392.392H20.964a.588.588,0,0,1,0-1.176h1.371a.392.392,0,0,1,.392.392Z" transform="translate(0.245 0.244)" fill="#869a95"/>
      <path id="Shape_-_Outline" data-name="Shape - Outline" d="M3.522-.249a1.023,1.023,0,0,1,.4.082C8.806,1.88,10.879,3.426,11.75,4.421c.871-.995,2.944-2.541,7.83-4.589a1.029,1.029,0,0,1,1.427.947v1.5l.077-.038a1.028,1.028,0,0,1,1.49.918V7.217a1.423,1.423,0,0,1,1.176,1.4v.392a1.411,1.411,0,0,1-.24.784,1.41,1.41,0,0,1,.24.783v.393a1.411,1.411,0,0,1-.24.784,1.41,1.41,0,0,1,.24.783v.393a1.411,1.411,0,0,1-.24.784,1.41,1.41,0,0,1,.24.783v.393a1.423,1.423,0,0,1-1.176,1.4v2.46A1.028,1.028,0,0,1,22,19.67L14.17,23.583a1,1,0,0,1-.778.055,1.019,1.019,0,0,1-.467.113H10.575a1.022,1.022,0,0,1-.469-.112,1.022,1.022,0,0,1-.31.055H9.791a1.033,1.033,0,0,1-.466-.113L1.492,19.664a1.025,1.025,0,0,1-.566-.92V16.285a1.423,1.423,0,0,1-1.176-1.4v-.392a1.411,1.411,0,0,1,.24-.784,1.41,1.41,0,0,1-.24-.783v-.393a1.411,1.411,0,0,1,.24-.784,1.41,1.41,0,0,1-.24-.783v-.393a1.411,1.411,0,0,1,.24-.784,1.41,1.41,0,0,1-.24-.783V8.616a1.423,1.423,0,0,1,1.176-1.4V3.162A1.029,1.029,0,0,1,1.954,2.134a1.034,1.034,0,0,1,.459.108l.08.04V.779A1.029,1.029,0,0,1,3.522-.249ZM11.75,5.214l-.2-.259c-.7-.929-2.627-2.494-7.822-4.671a.539.539,0,0,0-.75.5v2.3l-.788-.394a.548.548,0,0,0-.523.024.535.535,0,0,0-.256.458V7.686H1.17a.932.932,0,0,0-.931.931v.392a.921.921,0,0,0,.242.619l.151.165-.151.165a.921.921,0,0,0-.242.619v.391a.921.921,0,0,0,.242.619l.151.165-.151.165a.921.921,0,0,0-.242.619v.391a.921.921,0,0,0,.242.619l.151.165-.151.165a.921.921,0,0,0-.242.619v.391a.932.932,0,0,0,.931.931h.245v2.929a.534.534,0,0,0,.295.48l7.836,3.919a.544.544,0,0,0,.243.06.529.529,0,0,0,.225-.057l.131-.067.121.084a.532.532,0,0,0,.307.1h2.353a.532.532,0,0,0,.307-.1l.122-.086.132.069a.508.508,0,0,0,.461,0L21.78,19.23a.537.537,0,0,0,.3-.484v-2.93h.245a.932.932,0,0,0,.931-.931v-.392a.921.921,0,0,0-.242-.619l-.151-.165.151-.165a.921.921,0,0,0,.242-.619v-.391a.921.921,0,0,0-.242-.619l-.151-.165.151-.165a.921.921,0,0,0,.242-.619v-.391a.921.921,0,0,0-.242-.619l-.151-.165.151-.165a.921.921,0,0,0,.242-.619V8.616a.932.932,0,0,0-.931-.931h-.245V3.162a.535.535,0,0,0-.252-.455.547.547,0,0,0-.529-.024l-.786.391V.779a.538.538,0,0,0-.241-.448A.544.544,0,0,0,19.77.283c-5.2,2.179-7.123,3.743-7.824,4.672ZM3.277.411l.34.142c6.206,2.6,7.594,4.3,7.9,4.879H11.6V6.51H10.575a.531.531,0,0,0-.287.085l-.117.076-.125-.062-.029-.017-6.74-3.37Zm7.837,5.309c-.1-.233-.979-1.859-7.347-4.572v1.77l6.386,3.193a1.02,1.02,0,0,1,.421-.092h.539ZM20.224.411V3.222L13.483,6.594l-.029.017-.126.063L13.21,6.6a.531.531,0,0,0-.287-.086H11.9V5.672l.007-.029c.034-.137.229-.649,1.3-1.5A29.725,29.725,0,0,1,19.884.553Zm-.49,2.508V1.149c-6.426,2.738-7.266,4.392-7.347,4.593V6.02h.539a1.024,1.024,0,0,1,.421.094Zm2.057-.154V7.686H20.567A1.128,1.128,0,0,0,19.44,8.812a1.113,1.113,0,0,0,.144.537l.149.264-.29.09a1.118,1.118,0,0,0,0,2.135l.291.09-.15.265a1.1,1.1,0,0,0,.39,1.49l.228.138-.156.216a1.122,1.122,0,0,0,.909,1.78h.837V18.9l-8.327,4.163V6.93l6.95-3.474.013-.007ZM21.3,7.2V3.559l-.655.329-.026.013L13.954,7.233V22.266L21.3,18.592V16.306h-.343a1.612,1.612,0,0,1-1.439-2.347,1.582,1.582,0,0,1-.477-1.757,1.608,1.608,0,0,1,0-2.863A1.606,1.606,0,0,1,20.567,7.2ZM1.709,2.767l1.382.69,6.944,3.471v16.13L1.709,18.9v-3.08h.833a1.122,1.122,0,0,0,.913-1.78L3.3,13.821l.228-.138a1.1,1.1,0,0,0,.39-1.49l-.15-.265.291-.09a1.118,1.118,0,0,0,0-2.135l-.29-.09.149-.264a1.121,1.121,0,0,0-.983-1.664H1.709ZM9.546,7.232,2.2,3.559V7.2h.735A1.606,1.606,0,0,1,4.457,9.339a1.608,1.608,0,0,1,0,2.863,1.582,1.582,0,0,1-.477,1.757,1.612,1.612,0,0,1-1.435,2.347H2.2v2.288l7.347,3.672ZM10.33,6.8h2.841V22.968H10.33Zm2.351.49H10.82V22.478h1.861ZM1.17,7.979H2.934a.833.833,0,1,1,0,1.665H1.17a.637.637,0,0,1-.637-.637V8.616A.637.637,0,0,1,1.17,7.979ZM2.934,9.155a.343.343,0,0,0,0-.686H1.17a.147.147,0,0,0-.147.147v.392a.147.147,0,0,0,.147.147ZM20.567,7.979H22.33a.637.637,0,0,1,.637.637v.392a.637.637,0,0,1-.637.637H20.567a.833.833,0,1,1,0-1.665ZM22.33,9.155a.147.147,0,0,0,.147-.147V8.616a.147.147,0,0,0-.147-.147H20.567a.343.343,0,1,0,0,.686ZM1.17,9.939H3.717a.833.833,0,0,1,0,1.665H1.17a.637.637,0,0,1-.637-.637v-.392A.637.637,0,0,1,1.17,9.939Zm2.547,1.176a.343.343,0,0,0,0-.686H1.17a.147.147,0,0,0-.147.147v.392a.147.147,0,0,0,.147.147ZM19.783,9.939H22.33a.637.637,0,0,1,.637.637v.392a.637.637,0,0,1-.637.637H19.783a.833.833,0,0,1,0-1.665Zm2.547,1.176a.147.147,0,0,0,.147-.147v-.392a.147.147,0,0,0-.147-.147H19.783a.343.343,0,0,0,0,.686ZM1.17,11.9H2.934a.833.833,0,0,1,0,1.665H1.17a.637.637,0,0,1-.637-.637v-.392A.637.637,0,0,1,1.17,11.9Zm1.763,1.176a.343.343,0,0,0,0-.686H1.17a.147.147,0,0,0-.147.147v.392a.147.147,0,0,0,.147.147ZM20.567,11.9H22.33a.637.637,0,0,1,.637.637v.392a.637.637,0,0,1-.637.637H20.567a.833.833,0,1,1,0-1.665Zm1.763,1.176a.147.147,0,0,0,.147-.147v-.392a.147.147,0,0,0-.147-.147H20.567a.343.343,0,1,0,0,.686Zm-21.16.784H2.542a.833.833,0,1,1,0,1.665H1.17a.637.637,0,0,1-.637-.637v-.392A.637.637,0,0,1,1.17,13.857Zm1.371,1.176a.343.343,0,1,0,0-.686H1.17a.147.147,0,0,0-.147.147v.392a.147.147,0,0,0,.147.147Zm18.417-1.176H22.33a.637.637,0,0,1,.637.637v.392a.637.637,0,0,1-.637.637H20.959a.833.833,0,0,1,0-1.665Zm1.371,1.176a.147.147,0,0,0,.147-.147v-.392a.147.147,0,0,0-.147-.147H20.959a.343.343,0,0,0,0,.686Z" transform="translate(0.25 0.249)" fill="#869a95"/>
    </g>
  </g>
</svg>
