<svg xmlns="http://www.w3.org/2000/svg" width="24" height="23.999" viewBox="0 0 24 23.999">
  <g id="book_1_" data-name="book (1)" transform="translate(0 -0.867)">
    <path id="Path_23" data-name="Path 23" d="M432.8,29.49h-3.037a.447.447,0,0,0-.441.452v1.3h3.919v-1.3A.447.447,0,0,0,432.8,29.49Z" transform="translate(-409.245 -27.284)" fill="#21a56c"/>
    <path id="Path_24" data-name="Path 24" d="M314.972,75.652h-3.036a.447.447,0,0,0-.441.452v2.267h3.919V76.1A.447.447,0,0,0,314.972,75.652Z" transform="translate(-296.925 -71.287)" fill="#21a56c"/>
    <path id="Path_25" data-name="Path 25" d="M429.325,101.832h3.92V117.68h-3.92Z" transform="translate(-409.245 -96.163)" fill="#21a56c"/>
    <path id="Path_26" data-name="Path 26" d="M311.493,168.628h3.919V184.7h-3.919Z" transform="translate(-296.924 -159.835)" fill="#21a56c"/>
    <path id="Path_27" data-name="Path 27" d="M429.325,475.5h3.92v1.719h-3.92Z" transform="translate(-409.245 -452.358)" fill="#21a56c"/>
    <path id="Path_28" data-name="Path 28" d="M4.567,97.062H.441A.447.447,0,0,0,0,97.514v1.7H5.009v-1.7a.447.447,0,0,0-.441-.452Z" transform="translate(0 -91.679)" fill="#21a56c"/>
    <path id="Path_29" data-name="Path 29" d="M0,178.007H5.009v15.634H0Z" transform="translate(0 -168.775)" fill="#21a56c"/>
    <path id="Path_30" data-name="Path 30" d="M141.12,431.634H147.5V435.4H141.12Z" transform="translate(-134.52 -410.54)" fill="#21a56c"/>
    <path id="Path_31" data-name="Path 31" d="M141.12,116.749H147.5v13.178H141.12Z" transform="translate(-134.52 -110.462)" fill="#21a56c"/>
    <path id="Path_32" data-name="Path 32" d="M147.055.867h-5.494a.447.447,0,0,0-.441.452V4.658H147.5V1.319a.447.447,0,0,0-.441-.452Z" transform="translate(-134.52)" fill="#21a56c"/>
  </g>
</svg>
