<svg xmlns="http://www.w3.org/2000/svg" width="24" height="24" viewBox="0 0 24 24">
  <g id="user_1_" data-name="user (1)" transform="translate(-31 0.975)">
    <g id="Group_58" data-name="Group 58" transform="translate(37 -0.975)">
      <g id="Group_57" data-name="Group 57">
        <path id="Path_38" data-name="Path 38" d="M127,0a6,6,0,1,0,6,6A6.007,6.007,0,0,0,127,0Z" transform="translate(-121)" fill="#21a56c"/>
      </g>
    </g>
    <g id="Group_60" data-name="Group 60" transform="translate(31 13.025)">
      <g id="Group_59" data-name="Group 59">
        <path id="Path_39" data-name="Path 39" d="M51.958,302.745A10.965,10.965,0,0,0,44.6,300H41.4a10.965,10.965,0,0,0-7.358,2.745A8.765,8.765,0,0,0,31,309.292a.758.758,0,0,0,.8.708H54.2a.758.758,0,0,0,.8-.708A8.765,8.765,0,0,0,51.958,302.745Z" transform="translate(-31 -300)" fill="#21a56c"/>
      </g>
    </g>
  </g>
</svg>
