<svg xmlns="http://www.w3.org/2000/svg" width="24" height="24" viewBox="0 0 24 24">
  <g id="Page-1" transform="translate(0 0.196)">
    <g id="_026---Open-Book" data-name="026---Open-Book" transform="translate(0 -0.196)">
      <path id="Shape" d="M24,8.941v.433a.431.431,0,0,1-.429.433H21.643a.649.649,0,0,1,0-1.3h1.929A.431.431,0,0,1,24,8.941ZM24,11.1v.433a.431.431,0,0,1-.429.433H20.786a.649.649,0,0,1,0-1.3h2.786A.431.431,0,0,1,24,11.1Zm0,2.163V13.7a.431.431,0,0,1-.429.433H21.643a.649.649,0,0,1,0-1.3h1.929A.431.431,0,0,1,24,13.266ZM21,.944V2.819L13.757,6.475l-.014.01a.844.844,0,0,0-.458-.139h-.857V5.724c.033-.132.625-1.985,7.971-5.176a.425.425,0,0,1,.406.034A.434.434,0,0,1,21,.944ZM3.6.547C11.16,3.83,11.567,5.7,11.571,5.7v.649h-.857a.844.844,0,0,0-.459.137l-.014-.01L3,2.819V.945A.434.434,0,0,1,3.192.584.425.425,0,0,1,3.6.547ZM0,8.941a.431.431,0,0,1,.429-.433H2.357a.649.649,0,0,1,0,1.3H.429A.431.431,0,0,1,0,9.373Zm3,4.541a.646.646,0,0,1-.643.649H.429A.431.431,0,0,1,0,13.7v-.433a.431.431,0,0,1,.429-.433H2.357A.646.646,0,0,1,3,13.482Zm.214-1.514H.429A.431.431,0,0,1,0,11.536V11.1a.431.431,0,0,1,.429-.433H3.214a.649.649,0,0,1,0,1.3ZM0,15.861v-.433A.431.431,0,0,1,.429,15h1.5a.649.649,0,0,1,0,1.3H.429A.431.431,0,0,1,0,15.861Zm1.286,3.993v-2.7h.557a1.564,1.564,0,0,0,1.586-1.474,1.509,1.509,0,0,0-.284-.92,1.5,1.5,0,0,0,.521-2.009,1.508,1.508,0,0,0,0-2.873,1.473,1.473,0,0,0,.106-1.221A1.555,1.555,0,0,0,2.292,7.643H1.286V3.621a.433.433,0,0,1,.2-.368.425.425,0,0,1,.417-.018l.488.246.015.007L9.857,7.245v17.2l-8.334-4.2a.433.433,0,0,1-.237-.387Zm9.429,4.657V7.211h2.571v17.3Zm11.764-4.272-8.336,4.208V7.247l7.444-3.756.023-.012.484-.244a.425.425,0,0,1,.416.019.433.433,0,0,1,.2.367V7.643H21.708a1.555,1.555,0,0,0-1.479,1.019,1.473,1.473,0,0,0,.106,1.221,1.508,1.508,0,0,0,0,2.873,1.5,1.5,0,0,0,.521,2.009,1.509,1.509,0,0,0-.284.92,1.564,1.564,0,0,0,1.586,1.474h.557v2.693a.433.433,0,0,1-.236.387ZM24,15.861a.431.431,0,0,1-.429.433h-1.5a.649.649,0,0,1,0-1.3h1.5a.431.431,0,0,1,.429.433Z" transform="translate(0 -0.512)" fill="#21a56c"/>
    </g>
  </g>
</svg>
