<svg xmlns="http://www.w3.org/2000/svg" width="24" height="24" viewBox="0 0 24 24">
  <g id="password" transform="translate(0 -20.201)">
    <g id="Group_12368" data-name="Group 12368" transform="translate(0 34.81)">
      <g id="Group_12367" data-name="Group 12367">
        <path id="Path_641" data-name="Path 641" d="M21.652,289.391H2.348A2.35,2.35,0,0,0,0,291.739v4.7a2.35,2.35,0,0,0,2.348,2.348h19.3A2.35,2.35,0,0,0,24,296.434v-4.7A2.35,2.35,0,0,0,21.652,289.391ZM7.4,294.64a.783.783,0,1,1-1.107,1.107l-.553-.553-.553.553a.783.783,0,0,1-1.107-1.107l.553-.553-.553-.553a.783.783,0,0,1,1.107-1.107l.553.553.553-.553A.783.783,0,1,1,7.4,293.533l-.553.553Zm6.261,0a.783.783,0,1,1-1.107,1.107L12,295.193l-.553.553a.783.783,0,0,1-1.107-1.107l.553-.553-.553-.553a.783.783,0,1,1,1.107-1.107l.553.553.553-.553a.783.783,0,0,1,1.107,1.107l-.553.553Zm6.261,0a.783.783,0,1,1-1.107,1.107l-.553-.553-.553.553A.783.783,0,0,1,16.6,294.64l.553-.553-.553-.553a.783.783,0,0,1,1.107-1.107l.553.553.553-.553a.783.783,0,1,1,1.107,1.107l-.553.553Z" transform="translate(0 -289.391)" fill="#869a95"/>
      </g>
    </g>
    <g id="Group_12370" data-name="Group 12370" transform="translate(6.422 20.201)">
      <g id="Group_12369" data-name="Group 12369">
        <path id="Path_642" data-name="Path 642" d="M166.05,27.838h-.93V25.979a3.719,3.719,0,0,0-7.437,0v1.859h-.93a.93.93,0,0,0-.93.93v5.578a.93.93,0,0,0,.93.93h9.3a.93.93,0,0,0,.93-.93V28.768A.93.93,0,0,0,166.05,27.838Zm-2.789,0h-3.719V25.979a1.859,1.859,0,1,1,3.719,0v1.859Z" transform="translate(-155.824 -22.26)" fill="#869a95"/>
      </g>
    </g>
  </g>
</svg>
