<svg xmlns="http://www.w3.org/2000/svg" width="16" height="18" viewBox="0 0 16 18">
  <g id="refresh" transform="translate(-31 0)">
    <g id="Group_124" data-name="Group 124" transform="translate(31 0)">
      <path id="Path_221" data-name="Path 221" d="M45.781,5.838a.538.538,0,0,0-.772-.142L43.278,6.979a.524.524,0,0,0-.14.689A4.553,4.553,0,0,1,43.8,10.02a4.8,4.8,0,1,1-9.6,0A4.772,4.772,0,0,1,38.467,5.3V6.856a.534.534,0,0,0,.853.422l4.267-3.164a.524.524,0,0,0,0-.844L39.32.106a.534.534,0,0,0-.853.422v1.6A7.947,7.947,0,1,0,47,10.02,7.814,7.814,0,0,0,45.781,5.838Z" transform="translate(-31 0)" fill="#fff"/>
    </g>
  </g>
</svg>
