<svg id="_008---Sign-Language-A" data-name="008---Sign-Language-A" xmlns="http://www.w3.org/2000/svg" width="18" height="18" viewBox="0 0 18 18">
  <path id="Shape" d="M8.945,10.669a.945.945,0,0,0,.945-.945V5.945a.945.945,0,0,0-1.89,0V9.724A.945.945,0,0,0,8.945,10.669Z" transform="translate(-5.481 -3.425)" fill="#fff"/>
  <path id="Shape-2" data-name="Shape" d="M25.89,9.039V4.945a.945.945,0,1,0-1.89,0V9.039a.945.945,0,0,0,.161.52A3.13,3.13,0,0,1,25.89,9.039Z" transform="translate(-16.419 -2.74)" fill="#fff"/>
  <path id="Shape-3" data-name="Shape" d="M.945,12.039a.945.945,0,0,0,.945-.945V7.945a.945.945,0,0,0-1.89,0v3.149A.945.945,0,0,0,.945,12.039Z" transform="translate(0 -4.795)" fill="#fff"/>
  <path id="Shape-4" data-name="Shape" d="M16.945,9.984a.945.945,0,0,0,.945-.945V4.945a.945.945,0,1,0-1.89,0V9.039A.945.945,0,0,0,16.945,9.984Z" transform="translate(-10.946 -2.74)" fill="#fff"/>
  <path id="Shape-5" data-name="Shape" d="M11.023,0a.946.946,0,0,0-.945.947V6.313a.631.631,0,0,1-.63.631A2.522,2.522,0,0,0,6.929,9.469v.947a.315.315,0,1,1-.63,0V9.469A3.161,3.161,0,0,1,6.96,7.541,1.55,1.55,0,0,1,4.724,7.26a1.573,1.573,0,0,1-2.519,0A1.55,1.55,0,0,1,0,7.575V8.838a3.153,3.153,0,0,0,3.149,3.156.316.316,0,0,1,0,.631,3.7,3.7,0,0,1-1.575-.35V17.36a.315.315,0,0,0,.315.316H9.448a.315.315,0,0,0,.315-.316V12.626H9.448a.316.316,0,0,1,0-.631,2.522,2.522,0,0,0,2.519-2.525V.947A.946.946,0,0,0,11.023,0ZM2.834,17.045H2.519a.316.316,0,0,1,0-.631h.315a.316.316,0,0,1,0,.631Zm5.984,0H4.094a.316.316,0,0,1,0-.631H8.818a.316.316,0,0,1,0,.631Z" transform="translate(0)" fill="#fff"/>
  <path id="Shape-6" data-name="Shape" d="M42.493,36.987A2.74,2.74,0,0,0,40,39.758v2.863a.652.652,0,0,0,.523.665.63.63,0,0,0,.737-.63V41.4a.315.315,0,0,1,.315-.315h2.2a.315.315,0,0,1,.315.315v1.225a.652.652,0,0,0,.523.665.63.63,0,0,0,.737-.63V39.664a2.68,2.68,0,0,0-2.86-2.677Zm-1.235,2.834v-.157a1.417,1.417,0,0,1,2.834,0v.157Z" transform="translate(-27.353 -25.295)" fill="#fff"/>
</svg>
