<svg xmlns="http://www.w3.org/2000/svg" width="20" height="18" viewBox="0 0 20 18">
  <g id="volume" transform="translate(0 -15.99)">
    <path id="Path_187" data-name="Path 187" d="M11.606,16.054a.683.683,0,0,0-.7.077l-6.476,5H1.331A1.311,1.311,0,0,0,0,22.419v5.143a1.31,1.31,0,0,0,1.331,1.286H4.426l6.475,5a.686.686,0,0,0,.706.076.64.64,0,0,0,.377-.579V16.634A.643.643,0,0,0,11.606,16.054Z" transform="translate(0 0)" fill="#869a95"/>
    <path id="Path_188" data-name="Path 188" d="M342.885,122.432a.7.7,0,0,0-.941,0,.6.6,0,0,0,.005.881,4.737,4.737,0,0,1,0,7.028.594.594,0,0,0-.005.88.7.7,0,0,0,.941,0,5.924,5.924,0,0,0,0-8.8Z" transform="translate(-327.504 -101.841)" fill="#869a95"/>
    <path id="Path_189" data-name="Path 189" d="M388,77.309a.69.69,0,0,0-.943,0,.615.615,0,0,0,0,.9,7.319,7.319,0,0,1,0,10.743.616.616,0,0,0,0,.9.692.692,0,0,0,.943,0,8.548,8.548,0,0,0,0-12.544Z" transform="translate(-370.743 -58.591)" fill="#869a95"/>
  </g>
</svg>
